<svg xmlns="http://www.w3.org/2000/svg" xmlns:xlink="http://www.w3.org/1999/xlink" width="100" zoomAndPan="magnify" viewBox="0 0 75 74.999997" height="100" preserveAspectRatio="xMidYMid meet" version="1.0"><defs><clipPath id="89213c690d"><path d="M 11.15625 1 L 63.65625 1 L 63.65625 75 L 11.15625 75 Z M 11.15625 1 " clip-rule="nonzero"/></clipPath></defs><g clip-path="url(#89213c690d)"><path fill="#8c52ff" d="M 48.496094 72.789062 C 41.71875 74.871094 33.808594 75 27.023438 72.867188 L 27.023438 68.449219 C 33.632812 70.949219 41.847656 70.847656 48.496094 68.375 M 48.496094 66.109375 C 43.382812 67.929688 35.558594 68.839844 30.171875 66.839844 C 27.636719 65.890625 26.425781 65.082031 25.585938 63.289062 C 24.394531 60.742188 25.371094 57.121094 24.847656 54.429688 C 24.605469 53.175781 24.128906 52.074219 23.453125 50.566406 C 22.566406 48.589844 21.027344 46.765625 19.402344 44.835938 C 17.023438 42.019531 14.472656 38.992188 12.945312 34.757812 C 11.28125 30.132812 11.15625 24.648438 12.300781 19.839844 C 13.949219 12.925781 18.3125 6.996094 25.09375 3.757812 C 32.964844 0 43.152344 0.160156 50.871094 4.214844 C 58.371094 8.164062 63.167969 15.589844 63.5 25.230469 C 63.84375 35.148438 59.535156 40.265625 55.679688 44.835938 C 54.050781 46.765625 52.515625 48.589844 51.625 50.566406 C 51.3125 51.265625 51.296875 51.667969 51.285156 52.125 C 51.261719 52.929688 51.234375 53.832031 50.648438 55.511719 C 50.324219 56.441406 49.777344 57.238281 49.050781 57.917969 C 47.160156 59.699219 43.984375 60.667969 40.851562 61.011719 C 37.832031 61.339844 34.730469 61.101562 32.878906 60.460938 L 32.878906 60.46875 C 32.617188 60.378906 32.375 60.28125 32.148438 60.167969 L 32.148438 55.902344 C 34.148438 56.925781 39.410156 56.972656 40.410156 56.863281 C 42.75 56.605469 45.027344 55.972656 46.191406 54.878906 C 46.4375 54.644531 46.621094 54.398438 46.710938 54.140625 C 47.070312 53.109375 47.085938 52.527344 47.101562 52.011719 C 47.128906 51.117188 47.152344 50.324219 47.816406 48.851562 C 48.941406 46.351562 50.664062 44.304688 52.492188 42.140625 C 55.851562 38.15625 59.605469 33.699219 59.320312 25.359375 C 59.035156 17.1875 54.949219 10.941406 48.59375 7.726562 C 42.011719 4.390625 32.929688 4.449219 26.402344 7.792969 C 21.355469 10.371094 18.066406 14.742188 16.613281 19.851562 C 15.234375 24.703125 15.445312 30.304688 17.566406 34.882812 C 18.90625 37.773438 20.804688 40.027344 22.589844 42.140625 C 24.414062 44.304688 26.136719 46.351562 27.265625 48.851562 C 28.0625 50.625 28.621094 51.9375 28.953125 53.625 C 29.277344 55.28125 29.351562 57.175781 29.179688 60.042969 C 29.238281 61.171875 30.277344 62.230469 32.15625 62.933594 C 32.648438 63.113281 33.210938 63.277344 33.835938 63.40625 C 34.410156 63.527344 35.097656 63.617188 35.890625 63.679688 C 36.441406 63.71875 36.96875 63.742188 37.46875 63.742188 C 38.339844 63.742188 44.210938 63.324219 47.46875 62.03125 C 47.835938 61.886719 48.183594 61.730469 48.496094 61.558594 Z M 48.496094 66.109375 " fill-opacity="1" fill-rule="evenodd"/></g><path fill="#8c52ff" d="M 47.773438 27.976562 L 47.773438 30.964844 L 42.789062 30.964844 C 42.308594 34.105469 42.070312 37.125 42.070312 40.007812 C 42.070312 41.425781 42.316406 42.4375 42.808594 43.042969 C 43.308594 43.65625 43.921875 43.964844 44.664062 43.964844 C 45.257812 43.964844 45.765625 43.761719 46.210938 43.34375 C 46.648438 42.929688 46.929688 42.332031 47.054688 41.550781 L 47.773438 41.550781 C 47.539062 43.726562 47.019531 45.25 46.21875 46.144531 C 45.417969 47.035156 44.507812 47.488281 43.511719 47.488281 C 42.4375 47.488281 41.550781 46.992188 40.832031 46.023438 C 40.117188 45.046875 39.765625 43.222656 39.765625 40.5625 C 39.765625 38.886719 40.023438 35.6875 40.542969 30.964844 L 35.1875 30.964844 C 34.765625 38.164062 34.246094 42.714844 33.640625 44.625 C 33.042969 46.53125 32.207031 47.488281 31.152344 47.488281 C 30.660156 47.488281 30.253906 47.316406 29.929688 46.992188 C 29.605469 46.664062 29.441406 46.25 29.441406 45.757812 C 29.441406 45.398438 29.5 45.089844 29.605469 44.828125 C 29.757812 44.46875 30.085938 43.972656 30.578125 43.324219 C 31.410156 42.210938 31.996094 41.046875 32.328125 39.824219 C 32.914062 37.734375 33.304688 34.78125 33.476562 30.964844 L 32.53125 30.964844 C 31.53125 30.964844 30.78125 31.132812 30.285156 31.464844 C 29.492188 31.957031 28.761719 32.777344 28.101562 33.929688 L 27.300781 33.929688 C 28.074219 31.554688 28.964844 29.917969 30 29.007812 C 30.78125 28.320312 31.882812 27.976562 33.296875 27.976562 " fill-opacity="1" fill-rule="evenodd"/></svg>